<svg xmlns="http://www.w3.org/2000/svg" width="900" height="620" viewBox="0 0 900 620" role="img" aria-labelledby="title desc">
  <title id="title">Fausse publicité IA pédagogique</title>
  <desc id="desc">Illustration d’une publicité fictive qui promet un générateur miracle et affiche une URL douteuse.</desc>
  <rect width="900" height="620" fill="#f4f6ff"/>
  <rect x="86" y="66" width="728" height="488" rx="34" fill="#ffffff" stroke="#d8dbe6" stroke-width="4"/>
  <rect x="86" y="66" width="728" height="94" rx="34" fill="#000091"/>
  <path d="M86 126h728v34H86z" fill="#000091"/>
  <text x="128" y="123" font-family="Arial" font-size="38" font-weight="800" fill="#fff">IA MIRACLE 3000</text>
  <g transform="translate(660 98)">
    <circle cx="0" cy="0" r="46" fill="#fff" opacity=".95"/>
    <path d="M-22-2l13 15 33-34" fill="none" stroke="#e1000f" stroke-width="8" stroke-linecap="round" stroke-linejoin="round"/>
    <text x="-28" y="64" font-family="Arial" font-size="15" font-weight="800" fill="#fff">Badge officiel*</text>
  </g>
  <text x="126" y="226" font-family="Arial" font-size="34" font-weight="800" fill="#e1000f">Gagne 2 000 € par jour sans travailler</text>
  <text x="126" y="273" font-family="Arial" font-size="25" fill="#1f1f1f">Notre IA écrit, investit et répond à ta place.</text>
  <rect x="126" y="312" width="420" height="64" rx="15" fill="#fff0f1" stroke="#e1000f" stroke-width="3"/>
  <text x="148" y="353" font-family="Arial" font-size="23" font-weight="800" fill="#8a0008">Offre valable encore 03:59 minutes</text>
  <rect x="126" y="410" width="590" height="70" rx="18" fill="#f7f8ff" stroke="#000091" stroke-width="3"/>
  <text x="150" y="454" font-family="Arial" font-size="24" font-weight="800" fill="#000091">https://service-gouv-ai-prime.superbonus-login.info</text>
  <g transform="translate(650 260)">
    <circle cx="0" cy="0" r="72" fill="#fff7df" stroke="#b88700" stroke-width="4"/>
    <text x="-45" y="-8" font-family="Arial" font-size="20" font-weight="900" fill="#7a5600">100%</text>
    <text x="-48" y="20" font-family="Arial" font-size="20" font-weight="900" fill="#7a5600">GARANTI</text>
  </g>
  <text x="126" y="522" font-family="Arial" font-size="17" fill="#666b7a">*Badge fictif non vérifiable. Cette image est un exercice de sensibilisation.</text>
</svg>
